
<svg xmlns="http://www.w3.org/2000/svg" viewBox="0 0 120 120" fill="none" stroke="currentColor" stroke-linecap="round" stroke-linejoin="round">
<title>Cabra-montês — a Professora Sofia</title>
<g stroke-width="2.5">
<path d="M14 38 C18 33 23 30 28 28"></path>
<path d="M14 38 C13 41 14 44 17 45 C21 46.5 25 46 27 44"></path>
<path d="M17 45 L14 52"></path>
<path d="M28 27 C38 9 58 4 70 12 C77 17 79 25 74 30"></path>
<path d="M30 30 C36 35 42 39 49 42 C59 47 69 47 78 45 C85 43 90 47 89 53"></path>
<path d="M89 53 C88 59 85 63 81 65"></path>
<path d="M87 46 L95 40"></path>
<path d="M42 65 C52 70 66 69 79 62"></path>
<path d="M27 44 C32 50 37 56 41 62"></path>
<path d="M40 65 L39 81 L38 99"></path>
<path d="M80 65 L77 80 L76 98"></path>
</g>
<g stroke-width="1.1" opacity=".45">
<path d="M32 26 C41 12 57 8 67 15 C72 19 74 25 70 29"></path>
<path d="M47 66 L47 83 L49 98"></path>
<path d="M86 58 L84 77 L86 97"></path>
<path d="M22.6 35 a1.6 1.6 0 1 0 -3.2 0 a1.6 1.6 0 1 0 3.2 0"></path>
<path d="M37 14 L34.5 10.5 M44 9.5 L42.5 5.5 M52 7 L51 3 M60 7.5 L60.5 3.5 M67 11 L69 7.5" opacity=".5"></path>
</g>
<g stroke-width="2" opacity=".45" stroke-dasharray="0 4.2">
<path d="M46 49 C54 53 63 53 71 50"></path>
</g>
</svg>