
<svg xmlns="http://www.w3.org/2000/svg" viewBox="0 0 120 120" fill="none" stroke="currentColor" stroke-linecap="round" stroke-linejoin="round">
<title>Cavalo — frota Epona</title>
<g stroke-width="2.6">
<path d="M12 48 C13 44 16 40 21 37 C24 35 27 34 31 33"></path>
<path d="M32 33 L36 25 L40 31"></path>
<path d="M36 31 C45 27 53 27 60 32 C68 38 78 39 89 36 C97 34 102 39 103 47"></path>
<path d="M103 47 C102 55 99 61 94 65"></path>
<path d="M12 49 C12 52 14 54 18 54 C23 54 27 50 29 45"></path>
<path d="M28 48 C31 55 35 61 40 66"></path>
<path d="M48 68 C58 73 74 73 89 66"></path>
<path d="M101 45 C107 57 106 76 100 92"></path>
<path d="M42 67 L40 84 L41 101"></path>
<path d="M93 65 L89 82 L88 101"></path>
</g>
<g stroke-width="1.1" opacity=".45">
<path d="M50 68 L49 86 L51 101"></path>
<path d="M99 58 L97 79 L99 100"></path>
<path d="M101 50 C105 61 104 76 99 88"></path>
<path d="M16 42 C19 36 24 31 30 28 C36 25 42 24 48 25"></path>
<path d="M24 43 a1.8 1.8 0 1 0 -3.6 0 a1.8 1.8 0 1 0 3.6 0"></path>
</g>
<g stroke-width="2" opacity=".45" stroke-dasharray="0 4.2">
<path d="M38 30 C46 25 54 25 61 29"></path>
<path d="M18 48 C22 50 26 48 28 43"></path>
</g>
</svg>