
<svg xmlns="http://www.w3.org/2000/svg" viewBox="0 0 32 32">
<rect width="32" height="32" fill="#03100f"></rect>
<g fill="none" stroke="#2ee6c4" stroke-linecap="round" stroke-linejoin="round">
<path stroke-width="2.4" d="M8 17 C6.5 4 25.5 4 24 17"></path>
<path stroke-width="1.8" d="M14.1 12.5 a1.6 1.6 0 1 0 -3.2 0 a1.6 1.6 0 1 0 3.2 0"></path>
<path stroke-width="1.8" d="M21.1 12.5 a1.6 1.6 0 1 0 -3.2 0 a1.6 1.6 0 1 0 3.2 0"></path>
<path stroke-width="2.4" d="M8.5 17 C5 19 3 23 3.5 27.5"></path>
<path stroke-width="2.4" d="M12 18 C10.5 22 10.5 25.5 12 29"></path>
<path stroke-width="2.4" d="M16 18.5 C15.8 22.5 16.2 26 16.5 29.5"></path>
<path stroke-width="2.4" d="M20 18 C21.5 22 21.5 25.5 20 29"></path>
<path stroke-width="2.4" d="M23.5 17 C27 19 29 23 28.5 27.5"></path>
</g>
</svg>