
<svg xmlns="http://www.w3.org/2000/svg" viewBox="0 0 549 140">
<title>KrakenAI</title>
<g transform="translate(5,10) scale(3.75)" fill="none" stroke="#b0743a" stroke-linecap="round" stroke-linejoin="round">
<path stroke-width="1.10" d="M8 17 C6.5 4 25.5 4 24 17"></path>
<path stroke-width="0.83" d="M14.1 12.5 a1.6 1.6 0 1 0 -3.2 0 a1.6 1.6 0 1 0 3.2 0"></path>
<path stroke-width="0.83" d="M21.1 12.5 a1.6 1.6 0 1 0 -3.2 0 a1.6 1.6 0 1 0 3.2 0"></path>
<path stroke-width="1.10" d="M8.5 17 C5 19 3 23 3.5 27.5"></path>
<path stroke-width="1.10" d="M12 18 C10.5 22 10.5 25.5 12 29"></path>
<path stroke-width="1.10" d="M16 18.5 C15.8 22.5 16.2 26 16.5 29.5"></path>
<path stroke-width="1.10" d="M20 18 C21.5 22 21.5 25.5 20 29"></path>
<path stroke-width="1.10" d="M23.5 17 C27 19 29 23 28.5 27.5"></path>
</g>
<path fill="#03100f" d="M159.38 104L149.01 104L149.01 36.80L159.38 36.80L159.38 64.74L160.91 64.74L185.97 36.80L199.50 36.80L169.17 69.92L200.56 104L186.64 104L160.91 75.49L159.38 75.49L159.38 104ZM218.51 104L208.62 104L208.62 56.67L218.32 56.67L218.32 62.24L219.86 62.24Q221.01 59.26 223.50 57.87Q226 56.48 229.84 56.48L229.84 56.48L235.50 56.48L235.50 65.41L229.46 65.41Q224.56 65.41 221.54 68.05Q218.51 70.69 218.51 76.16L218.51 76.16L218.51 104ZM259.12 105.34L259.12 105.34Q254.03 105.34 250.05 103.62Q246.06 101.89 243.71 98.53Q241.36 95.17 241.36 90.37L241.36 90.37Q241.36 83.17 246.50 79.47Q251.63 75.78 259.41 75.78L259.41 75.78L273.81 75.78L273.81 72.70Q273.81 68.67 271.31 66.13Q268.82 63.58 263.63 63.58L263.63 63.58Q258.54 63.58 255.86 65.98Q253.17 68.38 252.30 72.22L252.30 72.22L243.09 69.25Q244.24 65.50 246.78 62.34Q249.33 59.17 253.50 57.25Q257.68 55.33 263.73 55.33L263.73 55.33Q272.94 55.33 278.22 60.03Q283.50 64.74 283.50 73.38L283.50 73.38L283.50 92.86Q283.50 95.74 286.19 95.74L286.19 95.74L290.22 95.74L290.22 104L282.83 104Q279.57 104 277.46 102.27Q275.34 100.54 275.34 97.57L275.34 97.57L275.34 97.28L273.81 97.28Q273.04 98.82 271.50 100.69Q269.97 102.56 266.99 103.95Q264.02 105.34 259.12 105.34ZM260.56 97.18L260.56 97.18Q266.42 97.18 270.11 93.78Q273.81 90.37 273.81 84.42L273.81 84.42L273.81 83.46L259.98 83.46Q256.05 83.46 253.65 85.14Q251.25 86.82 251.25 90.08L251.25 90.08Q251.25 93.34 253.74 95.26Q256.24 97.18 260.56 97.18ZM309.71 104L299.82 104L299.82 36.80L309.71 36.80L309.71 75.10L311.25 75.10L329.87 56.67L343.02 56.67L319.12 79.62L343.79 104L330.83 104L311.25 84.32L309.71 84.32L309.71 104ZM371.73 105.34L371.73 105.34Q364.53 105.34 359.15 102.32Q353.78 99.30 350.75 93.82Q347.73 88.35 347.73 80.96L347.73 80.96L347.73 79.81Q347.73 72.42 350.75 66.94Q353.78 61.47 359.06 58.40Q364.34 55.33 371.34 55.33L371.34 55.33Q378.16 55.33 383.30 58.35Q388.43 61.38 391.31 66.75Q394.19 72.13 394.19 79.33L394.19 79.33L394.19 83.07L357.81 83.07Q358.00 89.31 361.98 93.01Q365.97 96.70 371.92 96.70L371.92 96.70Q377.49 96.70 380.32 94.21Q383.15 91.71 384.69 88.45L384.69 88.45L392.94 92.67Q391.50 95.36 389.01 98.34Q386.51 101.31 382.29 103.33Q378.06 105.34 371.73 105.34ZM357.90 75.49L357.90 75.49L384.21 75.49Q383.73 70.21 380.27 67.14Q376.82 64.06 371.25 64.06L371.25 64.06Q365.68 64.06 362.18 67.14Q358.67 70.21 357.90 75.49ZM415.98 104L406.10 104L406.10 56.67L415.79 56.67L415.79 63.78L417.33 63.78Q418.67 60.90 422.13 58.40Q425.58 55.90 432.40 55.90L432.40 55.90Q437.78 55.90 441.95 58.30Q446.13 60.70 448.53 65.12Q450.93 69.54 450.93 75.58L450.93 75.58L450.93 104L441.04 104L441.04 76.35Q441.04 70.21 437.97 67.28Q434.90 64.35 429.52 64.35L429.52 64.35Q423.38 64.35 419.68 68.38Q415.98 72.42 415.98 80.10L415.98 80.10L415.98 104ZM470.61 104L459.95 104L479.06 36.80L497.30 36.80L516.40 104L505.74 104L501.33 88.16L475.02 88.16L470.61 104ZM487.41 43.23L477.62 78.56L498.74 78.56L488.94 43.23L487.41 43.23ZM535.89 104L525.52 104L525.52 36.80L535.89 36.80L535.89 104Z"></path>
</svg>