
<svg xmlns="http://www.w3.org/2000/svg" viewBox="0 0 800 800" fill="none" stroke="currentColor" stroke-linecap="round" stroke-linejoin="round">
<title>Painel de xisto — sobreposição, composição original</title>
<g stroke-width="2.5" opacity=".04">
<path d="M40 190 C240 150 480 115 760 90"></path>
<path d="M60 420 C300 380 540 350 770 320"></path>
<path d="M30 640 C260 606 520 580 760 556"></path>
<path d="M120 770 C340 744 560 726 740 712"></path>
<path d="M90 60 C300 40 520 28 700 30"></path>
<path d="M170 50 C158 200 148 380 142 540"></path>
<path d="M640 240 C630 400 622 560 616 740"></path>
</g>
<g opacity="0.05" transform="translate(80,60) scale(2) rotate(-8 60 60)">

<g stroke-width="2.5">
<path d="M14 38 C18 33 23 30 28 28"></path>
<path d="M14 38 C13 41 14 44 17 45 C21 46.5 25 46 27 44"></path>
<path d="M17 45 L14 52"></path>
<path d="M28 27 C38 9 58 4 70 12 C77 17 79 25 74 30"></path>
<path d="M30 30 C36 35 42 39 49 42 C59 47 69 47 78 45 C85 43 90 47 89 53"></path>
<path d="M89 53 C88 59 85 63 81 65"></path>
<path d="M87 46 L95 40"></path>
<path d="M42 65 C52 70 66 69 79 62"></path>
<path d="M27 44 C32 50 37 56 41 62"></path>
<path d="M40 65 L39 81 L38 99"></path>
<path d="M80 65 L77 80 L76 98"></path>
</g>
<g stroke-width="1.1" opacity=".45">
<path d="M32 26 C41 12 57 8 67 15 C72 19 74 25 70 29"></path>
<path d="M47 66 L47 83 L49 98"></path>
<path d="M86 58 L84 77 L86 97"></path>
<path d="M22.6 35 a1.6 1.6 0 1 0 -3.2 0 a1.6 1.6 0 1 0 3.2 0"></path>
<path d="M37 14 L34.5 10.5 M44 9.5 L42.5 5.5 M52 7 L51 3 M60 7.5 L60.5 3.5 M67 11 L69 7.5" opacity=".5"></path>
</g>
<g stroke-width="2" opacity=".45" stroke-dasharray="0 4.2">
<path d="M46 49 C54 53 63 53 71 50"></path>
</g>
</g><g opacity="0.05" transform="translate(300,180) scale(3.2) rotate(-6 60 60)">

<g stroke-width="2.7">
<path d="M31 27 C23 30 17 36 15 43 C14 47 15 51 19 53"></path>
<path d="M19 53 C24 55 29 53 32 50"></path>
<path d="M32 50 C35 58 41 65 49 70"></path>
<path d="M31 25 C28 16 24 10 17 8 C13 7 10 10 11 14"></path>
<path d="M33 26 C41 20 50 19 57 22 C66 26 76 28 86 28 C97 28 103 34 103 44"></path>
<path d="M103 44 C102 53 99 59 95 63"></path>
<path d="M52 70 C63 74 79 72 92 63"></path>
<path d="M46 70 L44 86 L45 101"></path>
<path d="M93 63 L89 82 L88 101"></path>
<path d="M102 42 C106 56 105 76 101 90"></path>
</g>
<g stroke-width="1.1" opacity=".45">
<path d="M36 22 C34 14 30 8 24 6"></path>
<path d="M54 70 L53 88 L55 101"></path>
<path d="M100 57 L98 80 L100 100"></path>
<path d="M101 90 L98 98 M101 90 L104 98"></path>
<path d="M38 23 C46 17 55 16 62 19"></path>
<path d="M60 34 L58 48 M67 34 L65 49 M74 35 L72 49"></path>
<path d="M26.8 35 a1.8 1.8 0 1 0 -3.6 0 a1.8 1.8 0 1 0 3.6 0"></path>
</g>
<g stroke-width="2" opacity=".45" stroke-dasharray="0 4.2">
<path d="M52 26 C56 32 58 39 57 47"></path>
<path d="M36 30 C40 36 42 42 41 49"></path>
</g>
</g><g opacity="0.05" transform="translate(60,420) scale(2.6) rotate(5 60 60)">

<g stroke-width="2.6">
<path d="M12 48 C13 44 16 40 21 37 C24 35 27 34 31 33"></path>
<path d="M32 33 L36 25 L40 31"></path>
<path d="M36 31 C45 27 53 27 60 32 C68 38 78 39 89 36 C97 34 102 39 103 47"></path>
<path d="M103 47 C102 55 99 61 94 65"></path>
<path d="M12 49 C12 52 14 54 18 54 C23 54 27 50 29 45"></path>
<path d="M28 48 C31 55 35 61 40 66"></path>
<path d="M48 68 C58 73 74 73 89 66"></path>
<path d="M101 45 C107 57 106 76 100 92"></path>
<path d="M42 67 L40 84 L41 101"></path>
<path d="M93 65 L89 82 L88 101"></path>
</g>
<g stroke-width="1.1" opacity=".45">
<path d="M50 68 L49 86 L51 101"></path>
<path d="M99 58 L97 79 L99 100"></path>
<path d="M101 50 C105 61 104 76 99 88"></path>
<path d="M16 42 C19 36 24 31 30 28 C36 25 42 24 48 25"></path>
<path d="M24 43 a1.8 1.8 0 1 0 -3.6 0 a1.8 1.8 0 1 0 3.6 0"></path>
</g>
<g stroke-width="2" opacity=".45" stroke-dasharray="0 4.2">
<path d="M38 30 C46 25 54 25 61 29"></path>
<path d="M18 48 C22 50 26 48 28 43"></path>
</g>
</g><g opacity="0.04" transform="translate(560,590) scale(1.4) rotate(172 60 60)">

<g stroke-width="2.6">
<path d="M12 48 C13 44 16 40 21 37 C24 35 27 34 31 33"></path>
<path d="M32 33 L36 25 L40 31"></path>
<path d="M36 31 C45 27 53 27 60 32 C68 38 78 39 89 36 C97 34 102 39 103 47"></path>
<path d="M103 47 C102 55 99 61 94 65"></path>
<path d="M12 49 C12 52 14 54 18 54 C23 54 27 50 29 45"></path>
<path d="M28 48 C31 55 35 61 40 66"></path>
<path d="M48 68 C58 73 74 73 89 66"></path>
<path d="M101 45 C107 57 106 76 100 92"></path>
<path d="M42 67 L40 84 L41 101"></path>
<path d="M93 65 L89 82 L88 101"></path>
</g>
<g stroke-width="1.1" opacity=".45">
<path d="M50 68 L49 86 L51 101"></path>
<path d="M99 58 L97 79 L99 100"></path>
<path d="M101 50 C105 61 104 76 99 88"></path>
<path d="M16 42 C19 36 24 31 30 28 C36 25 42 24 48 25"></path>
<path d="M24 43 a1.8 1.8 0 1 0 -3.6 0 a1.8 1.8 0 1 0 3.6 0"></path>
</g>
<g stroke-width="2" opacity=".45" stroke-dasharray="0 4.2">
<path d="M38 30 C46 25 54 25 61 29"></path>
<path d="M18 48 C22 50 26 48 28 43"></path>
</g>
</g><g stroke-width="2" opacity=".03">
<path d="M240 300 C380 260 520 250 660 280"></path>
<path d="M200 560 C340 520 500 500 640 520"></path>
<path d="M420 120 C400 260 390 420 400 560"></path>
</g>
<g stroke-width="3" opacity=".04" stroke-dasharray="0 9">
<path d="M300 130 L420 116"></path>
<path d="M520 660 L640 646"></path>
<path d="M110 330 L200 318"></path>
<path d="M680 430 L750 420"></path>
</g>
</svg>